PathFileType  4	(X/Y/Z) C:\Users\antoi\Documents\MyRepositories\mobilecap\ResultsAnalysis
DataRate	CameraRate	NumFrames	NumMarkers	Units	OrigDataRate	OrigDataStartFrame	OrigNumFrames
100.0	100.0	5	51	mm	100.0	34	271
Frame#	Time	r_knee			r_shank_antsup			r_ankle			r_calc			r_5meta			r_toe			L_knee			L_shank_antsup			L_ankle			L_calc			L_5meta			L_toe			r_sh2			r_sh3			r_sh4			L_sh2			L_sh3			r_thigh1			r_thigh2			r_thigh3			r_thigh4			r_thigh5			L_thigh1			L_thigh2			L_thigh3			L_thigh4			r.ASIS			r.PSIS			L.ASIS			L.PSIS			C7			R_Shoulder			L_Shoulder			R_Sternum			L_Sternum			R_humerus			R_elbow_med			R_elbow_lat			R_forearm			R_wrist_radius			R_wrist_ulna			L_humerus			L_elbow_med			L_elbow_lat			L_forearm			L_wrist_radius			L_wrist_ulna			R_HJC			L_HJC			R_HJC_reg			L_HJC_reg			
		X1	Y1	Z1	X2	Y2	Z2	X3	Y3	Z3	X4	Y4	Z4	X5	Y5	Z5	X6	Y6	Z6	X7	Y7	Z7	X8	Y8	Z8	X9	Y9	Z9	X10	Y10	Z10	X11	Y11	Z11	X12	Y12	Z12	X13	Y13	Z13	X14	Y14	Z14	X15	Y15	Z15	X16	Y16	Z16	X17	Y17	Z17	X18	Y18	Z18	X19	Y19	Z19	X20	Y20	Z20	X21	Y21	Z21	X22	Y22	Z22	X23	Y23	Z23	X24	Y24	Z24	X25	Y25	Z25	X26	Y26	Z26	X27	Y27	Z27	X28	Y28	Z28	X29	Y29	Z29	X30	Y30	Z30	X31	Y31	Z31	X32	Y32	Z32	X33	Y33	Z33	X34	Y34	Z34	X35	Y35	Z35	X36	Y36	Z36	X37	Y37	Z37	X38	Y38	Z38	X39	Y39	Z39	X40	Y40	Z40	X41	Y41	Z41	X42	Y42	Z42	X43	Y43	Z43	X44	Y44	Z44	X45	Y45	Z45	X46	Y46	Z46	X47	Y47	Z47	X48	Y48	Z48	X49	Y49	Z49	X50	Y50	Z50	X51	Y51	Z51	

34	0.33000000	-1150.72989	780.79506	-424.42586	-1116.59697	715.75673	-423.07048	-1202.58428	389.70335	-423.27270	-1258.55012	360.61765	-463.84384	-1092.13375	351.74886	-404.84797	-1058.24335	376.07341	-459.44739	-1133.45683	772.49008	-702.17409	-1106.47133	684.51915	-686.98828	-1208.59560	400.34508	-702.50056	-1268.27390	358.15503	-659.35727	-1108.25114	353.32193	-728.75282	-1059.59868	370.50037	-674.20616	-1143.52207	606.30720	-410.34886	-1185.05512	737.80389	-396.93397	-1219.97038	623.68970	-388.53008	-1177.05086	713.57259	-737.35825	-1201.71419	591.71735	-742.03603	-1110.40547	1034.64260	-382.15632	-1104.83127	919.89043	-397.57662	-1214.03822	911.74291	-420.43911	-1223.62303	1025.86940	-396.80313	-1166.88767	894.13876	-396.76764	-1084.36501	1050.05843	-754.24578	-1078.82457	913.33924	-726.15918	-1197.25953	1038.80141	-766.57112	-1195.23977	909.43407	-720.59889	-1064.70073	1231.80976	-456.82028	-1266.16144	1276.88193	-546.93552	-1049.15921	1230.05348	-677.32741	-1257.78397	1276.83214	-629.51937	-1112.38329	1711.95100	-564.57965	-1064.62366	1670.31340	-418.23702	-1059.94256	1680.82962	-704.47037	-1001.21025	1629.14142	-539.92436	-1000.99383	1629.11108	-578.51748	-1075.73972	1559.34352	-349.49015	-1241.96173	1408.88372	-331.37782	-1199.99827	1409.21448	-279.55796	-1160.02801	1323.64454	-265.90506	-1152.66929	1180.83565	-258.33085	-1182.02933	1181.90407	-235.42555	-1087.14192	1591.95592	-786.90420	-1229.04574	1416.83490	-804.22626	-1193.26874	1433.21194	-859.00514	-1162.26034	1331.62716	-885.19781	-1160.48081	1203.52751	-895.80304	-1190.80086	1209.46417	-921.81083	-1154.07968	1151.42249	-469.89238	-1137.12285	1151.94502	-676.70514	-1140.12841	1168.24433	-494.81365	-1125.40378	1168.15629	-639.96889	
35	0.34000000	-1149.69592	780.52822	-424.22659	-1115.58023	715.38164	-422.96129	-1202.70503	389.63847	-423.28861	-1258.67218	360.56564	-463.87087	-1092.22566	351.82017	-404.89919	-1058.35405	376.32805	-459.50618	-1132.43618	772.29199	-702.23057	-1105.65692	684.15881	-687.01160	-1208.65072	400.30776	-702.54849	-1268.28377	358.12748	-659.48693	-1108.30438	353.32810	-728.72091	-1059.67476	370.63924	-674.26155	-1142.79225	605.97000	-410.53217	-1183.77897	737.63827	-396.65678	-1219.41281	623.63104	-388.56644	-1176.07866	713.44830	-737.38092	-1201.06680	591.75570	-742.35170	-1110.70260	1034.48199	-382.39746	-1104.12927	919.69472	-397.62098	-1213.24696	911.18978	-420.57702	-1222.75054	1025.20625	-397.29267	-1166.03742	893.88140	-396.57338	-1083.56922	1049.87681	-754.20747	-1077.44252	913.04183	-726.33453	-1196.70587	1038.42457	-766.13490	-1194.42131	909.16401	-720.75290	-1064.14559	1231.32276	-456.75199	-1265.23382	1277.53460	-546.89265	-1048.42505	1229.44464	-677.08076	-1256.77879	1277.52759	-629.51337	-1108.16557	1711.62528	-564.59231	-1060.40234	1669.95039	-418.16926	-1056.13288	1680.23826	-704.43879	-997.42941	1628.25450	-539.93622	-997.24903	1628.10857	-578.64216	-1073.34882	1559.75177	-348.86393	-1242.35619	1412.25168	-330.85067	-1200.71621	1412.08152	-278.86088	-1162.42786	1325.94700	-264.23815	-1157.84674	1183.18191	-255.58299	-1187.32348	1185.04276	-232.74976	-1084.96821	1592.53438	-787.38529	-1230.31383	1420.33266	-804.96806	-1194.57955	1436.21177	-859.63497	-1166.12842	1334.46392	-887.07393	-1167.05168	1206.38456	-898.34212	-1197.48243	1213.20683	-924.52208	-1153.97081	1151.45031	-469.80215	-1136.85156	1151.88080	-676.60187	-1139.85369	1168.10533	-494.84761	-1125.01191	1168.09227	-639.88191	
36	0.35000000	-1148.67779	780.26459	-424.19159	-1114.54926	715.09364	-422.79589	-1202.73958	389.64270	-423.26185	-1258.77813	360.51610	-463.88594	-1092.31425	351.96069	-404.83461	-1058.47880	376.58170	-459.55300	-1131.42878	772.18907	-702.25697	-1104.75348	683.82772	-687.02210	-1208.70591	400.28445	-702.58839	-1268.34133	358.11968	-659.58372	-1108.35814	353.30220	-728.64876	-1059.75507	370.74405	-674.29708	-1142.12488	605.76483	-410.73075	-1182.56646	737.44011	-396.41321	-1218.63801	623.76767	-388.34650	-1175.04849	713.26134	-737.41050	-1200.44326	591.69010	-742.48726	-1110.88477	1033.73670	-381.95459	-1103.31404	919.53394	-397.53924	-1212.40004	910.57792	-420.82998	-1221.97026	1024.72398	-397.46115	-1165.15353	893.56032	-396.49911	-1082.74207	1049.65448	-754.09831	-1076.47851	912.75794	-726.14955	-1196.16290	1037.84187	-765.29947	-1193.64381	908.83810	-720.52773	-1063.54001	1230.67933	-456.82320	-1264.23012	1278.25135	-546.81919	-1047.68339	1228.87442	-676.83428	-1255.71009	1278.32216	-629.50807	-1103.83624	1711.29264	-564.52496	-1056.08355	1669.54749	-418.04478	-1052.19627	1679.57565	-704.38349	-993.53445	1627.37630	-539.97803	-993.42417	1627.15925	-578.61364	-1070.90793	1560.16092	-348.21685	-1242.55447	1415.57653	-330.54051	-1201.35649	1415.03194	-278.26670	-1164.77556	1328.31633	-262.75319	-1162.96715	1185.28228	-253.63638	-1192.58190	1188.21516	-230.47873	-1082.73473	1592.96037	-787.49511	-1231.42076	1423.84909	-805.58048	-1195.67070	1439.17937	-860.25788	-1169.53582	1337.17635	-888.87084	-1173.48183	1209.25780	-900.63930	-1204.00989	1216.66242	-926.12299	-1153.85702	1151.39627	-469.83202	-1136.61221	1151.90564	-676.62097	-1139.57074	1167.98809	-495.01413	-1124.64882	1168.11179	-639.83606	
37	0.36000000	-1147.61700	780.06057	-424.16380	-1113.49640	714.80100	-422.70129	-1202.74409	389.66185	-423.19495	-1258.79522	360.48845	-463.82612	-1092.39225	352.18861	-404.62231	-1058.58606	376.82574	-459.53695	-1130.37458	772.01182	-702.12748	-1103.76729	683.46708	-686.96391	-1208.73887	400.29057	-702.63739	-1268.40220	358.15467	-659.63098	-1108.37752	353.34419	-728.68131	-1059.81707	370.84247	-674.33028	-1141.43169	605.63347	-410.77577	-1181.59443	737.21105	-396.22183	-1217.72129	623.84910	-387.93073	-1174.02510	712.99928	-737.27533	-1199.76793	591.55017	-742.47410	-1110.28422	1032.54193	-381.13144	-1102.42777	919.37777	-397.30122	-1211.52880	910.41578	-420.20616	-1221.21898	1024.47677	-397.14665	-1164.24104	893.23860	-396.50736	-1081.90652	1049.42268	-753.85215	-1076.20129	912.60657	-725.61466	-1194.34431	1037.98801	-766.39224	-1192.81170	908.45454	-720.22653	-1062.88927	1230.00338	-456.85183	-1263.13867	1279.07329	-546.76266	-1046.97177	1228.29372	-676.41474	-1254.62901	1279.15711	-629.49998	-1099.40955	1710.92693	-564.42091	-1051.61451	1669.06952	-417.93792	-1048.11792	1678.88780	-704.37901	-989.52410	1626.54159	-539.89043	-989.51622	1626.21124	-578.65913	-1068.35159	1560.44890	-347.65880	-1242.60630	1418.92888	-330.39134	-1201.88636	1418.07820	-277.73665	-1167.05183	1330.75456	-261.42506	-1167.91148	1187.34412	-252.01153	-1197.71462	1191.34162	-228.60993	-1080.35528	1593.27988	-787.53228	-1232.31795	1427.32361	-806.05077	-1196.47888	1442.18663	-860.84864	-1172.61170	1339.78412	-890.35001	-1179.49684	1212.07900	-902.70740	-1210.16077	1220.10154	-927.43450	-1153.78456	1151.38160	-469.80117	-1136.37659	1151.94031	-676.57628	-1139.26528	1168.02855	-494.99956	-1124.39970	1168.17494	-639.53315	
38	0.37000000	-1146.50717	779.93029	-423.96741	-1112.43094	714.39446	-422.73351	-1202.79398	389.64134	-423.13812	-1258.81675	360.46800	-463.77176	-1092.45212	352.43347	-404.40086	-1058.68805	377.04887	-459.46505	-1129.24059	771.62299	-701.70749	-1102.67523	683.04015	-686.84262	-1208.75807	400.31564	-702.70114	-1268.46366	358.16306	-659.57920	-1108.38484	353.41261	-728.75328	-1059.86781	370.93493	-674.36429	-1140.69112	605.44427	-410.73420	-1180.65980	737.05413	-396.01263	-1216.81405	623.82276	-387.60125	-1172.95494	712.79002	-737.00201	-1199.08134	591.48144	-742.44532	-1109.13623	1031.72711	-380.62228	-1101.58055	919.15267	-397.08487	-1210.62024	910.50167	-419.10684	-1220.23483	1024.50514	-396.65418	-1163.27752	893.02047	-396.35496	-1081.09984	1049.23726	-753.64071	-1075.69301	912.49677	-725.31556	-1191.75492	1038.70933	-768.57939	-1191.87817	908.07570	-720.22434	-1062.12616	1229.41608	-456.73080	-1261.96828	1279.96547	-546.59945	-1046.26715	1227.64794	-676.02905	-1253.53626	1280.02681	-629.42309	-1094.87751	1710.50124	-564.31937	-1047.05393	1668.55948	-417.86563	-1043.92976	1678.18434	-704.39213	-985.47564	1625.69363	-539.83265	-985.51932	1625.22328	-578.75389	-1065.70807	1560.65335	-347.13242	-1242.54910	1422.31609	-330.30127	-1202.31045	1421.08798	-277.30025	-1169.20809	1333.21643	-260.19180	-1172.67043	1189.65186	-250.32742	-1202.64537	1194.44768	-227.08035	-1077.77537	1593.59269	-787.66754	-1232.94637	1430.70643	-806.33332	-1197.08172	1445.20841	-861.28984	-1175.48717	1342.41506	-891.54023	-1185.10557	1214.91263	-904.44124	-1215.81624	1223.67504	-928.82898	-1153.64207	1151.47784	-469.62812	-1136.16307	1151.93877	-676.39754	-1138.87302	1168.07360	-494.77232	-1124.17485	1168.18032	-639.14556	
